<svg version="1.1" xmlns="http://www.w3.org/2000/svg" viewBox="0 0 1421 643" width="1421" height="643">
  <!-- svg-source:excalidraw -->
  
  <defs>
    <style class="style-fonts">
      @font-face {
        font-family: "Virgil";
        src: url("https://excalidraw.com/Virgil.woff2");
      }
      @font-face {
        font-family: "Cascadia";
        src: url("https://excalidraw.com/Cascadia.woff2");
      }
    </style>
    
  </defs>
  <rect x="0" y="0" width="1421" height="643" fill="#ffffff"></rect><g transform="translate(690 50) rotate(0 327.1796569824219 137.5)"><text x="0" y="0" font-family="Virgil, Segoe UI Emoji" font-size="20px" fill="#1e1e1e" text-anchor="start" style="white-space: pre;" direction="ltr" dominant-baseline="text-before-edge">Die Funktion eines Vorgangs kann z.B. dargestellt werden</text><text x="0" y="25" font-family="Virgil, Segoe UI Emoji" font-size="20px" fill="#1e1e1e" text-anchor="start" style="white-space: pre;" direction="ltr" dominant-baseline="text-before-edge">- in Worten,</text><text x="0" y="50" font-family="Virgil, Segoe UI Emoji" font-size="20px" fill="#1e1e1e" text-anchor="start" style="white-space: pre;" direction="ltr" dominant-baseline="text-before-edge">- mit einer Wertetabelle</text><text x="0" y="75" font-family="Virgil, Segoe UI Emoji" font-size="20px" fill="#1e1e1e" text-anchor="start" style="white-space: pre;" direction="ltr" dominant-baseline="text-before-edge">- oder durch einen Funktionsgraph in einem Koordinatensystem.</text><text x="0" y="100" font-family="Virgil, Segoe UI Emoji" font-size="20px" fill="#1e1e1e" text-anchor="start" style="white-space: pre;" direction="ltr" dominant-baseline="text-before-edge"></text><text x="0" y="125" font-family="Virgil, Segoe UI Emoji" font-size="20px" fill="#1e1e1e" text-anchor="start" style="white-space: pre;" direction="ltr" dominant-baseline="text-before-edge">Ein proportionaler Vorgang ist eine besondere Funktion. Dabei gilt</text><text x="0" y="150" font-family="Virgil, Segoe UI Emoji" font-size="20px" fill="#1e1e1e" text-anchor="start" style="white-space: pre;" direction="ltr" dominant-baseline="text-before-edge">- der Graph ist eine Gerade durch den Ursprung,</text><text x="0" y="175" font-family="Virgil, Segoe UI Emoji" font-size="20px" fill="#1e1e1e" text-anchor="start" style="white-space: pre;" direction="ltr" dominant-baseline="text-before-edge">- k-mal von der einen Sache führt zu k-mal von der anderen Sache</text><text x="0" y="200" font-family="Virgil, Segoe UI Emoji" font-size="20px" fill="#1e1e1e" text-anchor="start" style="white-space: pre;" direction="ltr" dominant-baseline="text-before-edge">- der Dreisatz kann angewendet werden um weitere Zuordnungen</text><text x="0" y="225" font-family="Virgil, Segoe UI Emoji" font-size="20px" fill="#1e1e1e" text-anchor="start" style="white-space: pre;" direction="ltr" dominant-baseline="text-before-edge">  vorherzusagen</text><text x="0" y="250" font-family="Virgil, Segoe UI Emoji" font-size="20px" fill="#1e1e1e" text-anchor="start" style="white-space: pre;" direction="ltr" dominant-baseline="text-before-edge"></text></g><g stroke-linecap="round"><g transform="translate(727 198) rotate(0 107.761867217347 -0.41711570562875977)"><path d="M-0.5 -0.3 C35.46 -0.39, 180.08 -0.95, 216.03 -0.91 M1.44 -1.51 C37.22 -1.35, 179.07 0.75, 215.09 0.67" stroke="#1e1e1e" stroke-width="1" fill="none"></path></g></g><mask></mask><g transform="translate(54.99999999999994 50) rotate(0 293.439697265625 75)"><text x="0" y="0" font-family="Virgil, Segoe UI Emoji" font-size="20px" fill="#1e1e1e" text-anchor="start" style="white-space: pre;" direction="ltr" dominant-baseline="text-before-edge">Viele Vorgänge in der Natur können durch eine Zuordnung</text><text x="0" y="25" font-family="Virgil, Segoe UI Emoji" font-size="20px" fill="#1e1e1e" text-anchor="start" style="white-space: pre;" direction="ltr" dominant-baseline="text-before-edge">zwischen 2 Dingen erfasst werden. Man stellt eine</text><text x="0" y="50" font-family="Virgil, Segoe UI Emoji" font-size="20px" fill="#1e1e1e" text-anchor="start" style="white-space: pre;" direction="ltr" dominant-baseline="text-before-edge">Funktion des Vorgangs auf. </text><text x="0" y="75" font-family="Virgil, Segoe UI Emoji" font-size="20px" fill="#1e1e1e" text-anchor="start" style="white-space: pre;" direction="ltr" dominant-baseline="text-before-edge">Allgemein gesprochen, wird einem x-Wert von der einen Sache,</text><text x="0" y="100" font-family="Virgil, Segoe UI Emoji" font-size="20px" fill="#1e1e1e" text-anchor="start" style="white-space: pre;" direction="ltr" dominant-baseline="text-before-edge">ein y-Wert von der anderen Sache zugeordnet.</text><text x="0" y="125" font-family="Virgil, Segoe UI Emoji" font-size="20px" fill="#1e1e1e" text-anchor="start" style="white-space: pre;" direction="ltr" dominant-baseline="text-before-edge"></text></g><g stroke-linecap="round"><g transform="translate(51.99999999999994 122) rotate(0 40.298361079990855 -0.018002953603868832)"><path d="M-1.02 -0.13 C12.06 -0.26, 65.82 -0.26, 79.28 -0.22 M0.65 -1.24 C14.04 -1.23, 68.58 0.75, 81.62 1.2" stroke="#1e1e1e" stroke-width="1" fill="none"></path></g></g><mask></mask><g stroke-linecap="round"><g transform="translate(182 511) rotate(0 -2.050293112196414 -140.77393091507258)"><path d="M0.61 0.69 C-0.03 -46.41, -4.05 -234.94, -4.71 -282.24 M-0.53 0.01 C-0.72 -46.94, -1.92 -233.77, -2.47 -280.83" stroke="#1e1e1e" stroke-width="1" fill="none"></path></g><g transform="translate(182 511) rotate(0 -2.050293112196414 -140.77393091507258)"><path d="M9.19 -254.24 C5.13 -258.33, 1.29 -265.67, -1.74 -279.23 M8.5 -252.12 C5.55 -258.24, 3.26 -265.71, -2.8 -281.11" stroke="#1e1e1e" stroke-width="1" fill="none"></path></g><g transform="translate(182 511) rotate(0 -2.050293112196414 -140.77393091507258)"><path d="M-11.33 -254.06 C-10.69 -258.3, -9.84 -265.68, -1.74 -279.23 M-12.02 -251.94 C-10.5 -258.16, -8.31 -265.68, -2.8 -281.11" stroke="#1e1e1e" stroke-width="1" fill="none"></path></g></g><mask></mask><g stroke-linecap="round"><g transform="translate(166 491) rotate(0 174.91642002628186 0.9750747651910956)"><path d="M0.42 -0.62 C58.92 -0.47, 292.32 0.79, 350.64 1.36 M-0.81 1.66 C57.62 1.93, 291.6 2.69, 350.03 2.56" stroke="#1e1e1e" stroke-width="1" fill="none"></path></g><g transform="translate(166 491) rotate(0 174.91642002628186 0.9750747651910956)"><path d="M320.8 13.87 C328.35 10.54, 338.38 5.54, 348.97 4.5 M321.19 13.24 C330.1 10.29, 338.2 6.32, 350.36 1.73" stroke="#1e1e1e" stroke-width="1" fill="none"></path></g><g transform="translate(166 491) rotate(0 174.91642002628186 0.9750747651910956)"><path d="M320.81 -6.66 C328.44 -4.44, 338.46 -3.89, 348.97 4.5 M321.21 -7.28 C330.01 -4.14, 338.1 -2.02, 350.36 1.73" stroke="#1e1e1e" stroke-width="1" fill="none"></path></g></g><mask></mask><g transform="translate(199 212) rotate(0 4.689994812011719 12.5)"><text x="0" y="0" font-family="Virgil, Segoe UI Emoji" font-size="20px" fill="#1e1e1e" text-anchor="start" style="white-space: pre;" direction="ltr" dominant-baseline="text-before-edge">y</text></g><g transform="translate(463 455) rotate(0 5.6199951171875 12.5)"><text x="0" y="0" font-family="Virgil, Segoe UI Emoji" font-size="20px" fill="#1e1e1e" text-anchor="start" style="white-space: pre;" direction="ltr" dominant-baseline="text-before-edge">x</text></g><g transform="translate(331 298) rotate(0 1.5 0.5)" stroke="none"><path fill="#1e1e1e" d="M 0.79,-2.38 Q 0.79,-2.38 1.81,-2.02 2.84,-1.66 2.78,-1.67 2.71,-1.67 3.00,-1.54 3.28,-1.40 3.53,-1.20 3.78,-1.00 3.97,-0.75 4.16,-0.49 4.28,-0.20 4.41,0.08 4.46,0.39 4.51,0.71 4.48,1.02 4.46,1.34 4.36,1.64 4.26,1.94 4.09,2.21 3.92,2.48 3.69,2.70 3.46,2.92 3.19,3.08 2.91,3.24 2.61,3.33 2.30,3.41 1.98,3.43 1.67,3.44 1.36,3.38 1.04,3.31 0.36,3.01 -0.31,2.71 -0.74,2.59 -1.16,2.47 -1.53,2.22 -1.89,1.97 -2.16,1.61 -2.42,1.26 -2.56,0.84 -2.70,0.42 -2.69,-0.02 -2.69,-0.46 -2.54,-0.88 -2.40,-1.29 -2.13,-1.64 -1.86,-1.99 -1.49,-2.24 -1.12,-2.48 -0.70,-2.60 -0.27,-2.72 0.16,-2.69 0.60,-2.66 1.01,-2.49 1.42,-2.33 1.76,-2.04 2.09,-1.75 2.32,-1.37 2.54,-0.99 2.63,-0.55 2.73,-0.12 2.67,0.31 2.62,0.75 2.43,1.15 2.25,1.55 1.94,1.87 1.63,2.18 1.24,2.39 0.85,2.59 0.41,2.66 -0.02,2.73 -0.45,2.65 -0.89,2.58 -1.28,2.37 -1.67,2.16 -1.97,1.83 -2.27,1.51 -2.45,1.11 -2.63,0.71 -2.68,0.27 -2.72,-0.16 -2.63,-0.60 -2.53,-1.03 -2.30,-1.40 -2.06,-1.78 -1.73,-2.06 -1.39,-2.35 -0.97,-2.51 -0.56,-2.67 -0.12,-2.69 0.31,-2.71 0.31,-2.71 0.31,-2.71 1.51,-2.19 2.71,-1.67 3.00,-1.54 3.28,-1.40 3.53,-1.20 3.78,-1.00 3.97,-0.75 4.16,-0.49 4.28,-0.20 4.41,0.08 4.46,0.39 4.51,0.71 4.48,1.02 4.46,1.34 4.36,1.64 4.26,1.94 4.09,2.21 3.92,2.48 3.69,2.70 3.46,2.92 3.19,3.08 2.91,3.24 2.61,3.33 2.30,3.41 1.98,3.43 1.67,3.44 1.36,3.38 1.05,3.31 0.82,3.06 0.60,2.81 -0.09,2.59 -0.79,2.38 -1.06,2.25 -1.34,2.12 -1.57,1.93 -1.81,1.74 -1.99,1.49 -2.17,1.25 -2.29,0.97 -2.41,0.69 -2.46,0.40 -2.50,0.10 -2.48,-0.19 -2.46,-0.50 -2.36,-0.78 -2.26,-1.07 -2.10,-1.33 -1.94,-1.58 -1.72,-1.79 -1.50,-2.00 -1.24,-2.15 -0.98,-2.31 -0.69,-2.39 -0.40,-2.47 -0.10,-2.49 0.20,-2.50 0.49,-2.44 0.79,-2.38 0.79,-2.38 L 0.79,-2.38 Z"></path></g><g stroke-linecap="round"><g transform="translate(333 299) rotate(0 2.6208986323326826 95.29788133092225)"><path d="M-0.58 -0.09 C0.32 31.68, 4.82 159.03, 5.83 190.68" stroke="#1e1e1e" stroke-width="1.5" fill="none" stroke-dasharray="8 9"></path></g></g><mask></mask><g stroke-linecap="round"><g transform="translate(332 297) rotate(0 -76.76345971412957 0.5361788644679848)"><path d="M0.66 0.78 C-25.17 0.91, -128.33 0.16, -154.19 0.29" stroke="#1e1e1e" stroke-width="1.5" fill="none" stroke-dasharray="8 9"></path></g></g><mask></mask><g transform="translate(332 299) rotate(0 0 1)" stroke="none"><path fill="#1e1e1e" d="M -2.52,-0.84 Q -2.52,-0.84 -2.27,-1.71 -2.01,-2.58 -1.87,-2.88 -1.73,-3.18 -1.52,-3.43 -1.31,-3.69 -1.05,-3.89 -0.79,-4.09 -0.48,-4.21 -0.18,-4.34 0.13,-4.40 0.46,-4.45 0.79,-4.42 1.12,-4.40 1.43,-4.29 1.74,-4.19 2.02,-4.01 2.30,-3.84 2.53,-3.60 2.75,-3.36 2.92,-3.08 3.08,-2.79 3.17,-2.48 3.27,-2.16 3.28,-1.83 3.29,-1.50 3.23,-1.18 3.16,-0.86 3.13,-2.01 3.10,-3.16 3.78,-1.92 4.46,-0.68 4.59,0.46 4.72,1.62 4.40,2.87 4.08,4.12 3.49,5.04 2.90,5.97 1.97,6.65 1.05,7.33 -0.59,7.31 -2.23,7.30 -3.19,6.75 -4.15,6.20 -4.50,4.95 -4.86,3.70 -4.38,2.30 -3.90,0.89 -3.65,0.81 -3.39,0.72 -3.17,0.41 -2.94,0.10 -2.64,-0.15 -2.35,-0.40 -2.00,-0.57 -1.65,-0.74 -1.28,-0.83 -0.90,-0.91 -0.51,-0.90 -0.12,-0.90 0.24,-0.79 0.62,-0.69 0.96,-0.51 1.30,-0.32 1.58,-0.06 1.87,0.20 2.08,0.52 2.29,0.85 2.42,1.21 2.55,1.58 2.59,1.96 2.63,2.35 2.58,2.73 2.52,3.12 2.37,3.48 2.23,3.84 -0.24,4.24 -2.73,4.64 -3.53,3.54 -4.32,2.44 -4.61,1.31 -4.89,0.17 -4.03,0.50 -3.17,0.83 -3.22,0.44 -3.27,0.05 -3.23,-0.34 -3.19,-0.73 -3.06,-1.10 -2.92,-1.47 -2.70,-1.80 -2.48,-2.13 -2.19,-2.40 -1.90,-2.67 -1.55,-2.85 -1.21,-3.04 -0.82,-3.14 -0.44,-3.24 -0.05,-3.25 0.34,-3.26 0.72,-3.17 1.11,-3.08 1.46,-2.90 1.82,-2.72 2.12,-2.47 2.42,-2.21 2.65,-1.89 2.88,-1.56 3.02,-1.20 3.17,-0.83 3.21,-0.18 3.24,0.45 3.09,0.96 2.93,1.47 2.62,1.89 2.30,2.32 1.87,2.63 1.44,2.94 0.93,3.09 0.42,3.25 -0.10,3.23 -0.63,3.21 -1.12,3.03 -1.62,2.84 -2.03,2.51 -2.45,2.17 -2.73,1.73 -3.01,1.28 -3.14,0.76 -3.27,0.25 -3.22,-0.27 -3.17,-0.80 -2.96,-1.29 -2.75,-1.77 -2.39,-2.17 -2.04,-2.56 -1.58,-2.82 -1.11,-3.08 -0.59,-3.18 -0.07,-3.27 0.45,-3.20 0.97,-3.13 1.45,-2.89 1.92,-2.65 2.29,-2.27 2.67,-1.90 2.90,-1.42 3.14,-0.94 3.20,-0.42 3.27,0.10 3.17,0.62 3.07,1.14 2.81,1.60 2.54,2.06 2.15,2.41 1.75,2.77 1.26,2.97 0.77,3.18 0.24,3.22 -0.28,3.26 -0.79,3.13 -1.30,3.00 -1.75,2.71 -2.20,2.43 -2.53,2.01 -2.86,1.60 -3.04,1.10 -3.22,0.60 -3.19,0.71 -3.17,0.83 -3.22,0.44 -3.27,0.05 -3.23,-0.34 -3.19,-0.73 -3.06,-1.10 -2.92,-1.47 -2.70,-1.80 -2.48,-2.13 -2.19,-2.40 -1.90,-2.66 -1.55,-2.85 -1.21,-3.04 -0.82,-3.14 -0.44,-3.24 -0.05,-3.25 0.34,-3.26 0.72,-3.17 1.11,-3.08 1.46,-2.90 1.82,-2.72 2.12,-2.47 2.42,-2.21 2.65,-1.89 2.88,-1.56 3.02,-1.20 3.17,-0.83 2.13,-0.62 1.08,-0.40 -1.15,0.16 -3.39,0.72 -3.17,0.41 -2.94,0.10 -2.64,-0.15 -2.35,-0.40 -2.00,-0.57 -1.65,-0.74 -1.28,-0.83 -0.90,-0.91 -0.51,-0.90 -0.12,-0.90 0.24,-0.79 0.62,-0.69 0.96,-0.51 1.30,-0.32 1.58,-0.06 1.87,0.20 2.08,0.52 2.29,0.85 2.42,1.21 2.55,1.58 2.59,1.96 2.63,2.35 2.58,2.73 2.52,3.12 2.37,3.48 2.23,3.84 1.49,3.17 0.75,2.51 -0.48,2.43 -1.73,2.35 -1.02,1.45 -0.31,0.54 -1.16,-1.02 -2.01,-2.58 -1.87,-2.88 -1.73,-3.18 -1.52,-3.43 -1.31,-3.69 -1.05,-3.89 -0.79,-4.09 -0.48,-4.21 -0.18,-4.34 0.13,-4.40 0.46,-4.45 0.79,-4.42 1.12,-4.40 1.43,-4.29 1.74,-4.19 2.02,-4.01 2.30,-3.84 2.53,-3.60 2.75,-3.36 2.92,-3.08 3.08,-2.79 3.17,-2.48 3.27,-2.16 3.28,-1.83 3.29,-1.50 3.23,-1.18 3.16,-0.86 2.84,-0.00 2.52,0.84 2.38,1.13 2.25,1.42 2.04,1.67 1.84,1.92 1.58,2.11 1.33,2.30 1.03,2.43 0.74,2.55 0.42,2.61 0.10,2.66 -0.21,2.63 -0.53,2.61 -0.83,2.50 -1.14,2.40 -1.41,2.23 -1.68,2.06 -1.90,1.83 -2.12,1.60 -2.28,1.32 -2.45,1.04 -2.54,0.73 -2.62,0.42 -2.64,0.10 -2.65,-0.21 -2.59,-0.52 -2.52,-0.84 -2.52,-0.84 L -2.52,-0.84 Z"></path></g><g transform="translate(338 263) rotate(0 26.129974365234375 12.5)"><text x="0" y="0" font-family="Virgil, Segoe UI Emoji" font-size="20px" fill="#1e1e1e" text-anchor="start" style="white-space: pre;" direction="ltr" dominant-baseline="text-before-edge">P(x|y)</text></g><g stroke-linecap="round"><g transform="translate(181 493) rotate(0 116.90995568379759 -150.60356424860655)"><path d="M1.2 -0.32 C40.27 -50.5, 194.88 -250.58, 233.45 -300.89 M0.37 -1.53 C39.41 -51.52, 194.19 -249.3, 232.74 -299.3" stroke="#1e1e1e" stroke-width="1" fill="none"></path></g></g><mask></mask><g stroke-linecap="round" transform="translate(10 10) rotate(0 700.5 311.5)"><path d="M32 0 M32 0 C442.87 -3.91, 852.46 -4.02, 1369 0 M32 0 C371.86 -4.14, 711.25 -4.5, 1369 0 M1369 0 C1390.37 0.69, 1401.61 12.63, 1401 32 M1369 0 C1389.58 -1.88, 1403.03 8.39, 1401 32 M1401 32 C1402.79 179.9, 1402.81 326.83, 1401 591 M1401 32 C1403.25 153.21, 1402.87 273.57, 1401 591 M1401 591 C1401.55 612.37, 1389.86 624.5, 1369 623 M1401 591 C1402.18 613.38, 1391.8 623.37, 1369 623 M1369 623 C995.99 622.02, 622.01 623.02, 32 623 M1369 623 C1001.78 618.31, 633.63 618.51, 32 623 M32 623 C9.33 621.86, 1.12 613.71, 0 591 M32 623 C10.22 622.67, 0.15 612.12, 0 591 M0 591 C-1.87 451.97, -2.18 312.99, 0 32 M0 591 C-1.48 413.98, -1.9 236.42, 0 32 M0 32 C-1.05 9.54, 11.76 1.57, 32 0 M0 32 C1.86 11.07, 12.24 1.1, 32 0" stroke="#1e1e1e" stroke-width="1" fill="none"></path></g><g transform="translate(64 557) rotate(0 275.0497131347656 12.5)"><text x="0" y="0" font-family="Virgil, Segoe UI Emoji" font-size="20px" fill="#1e1e1e" text-anchor="start" style="white-space: pre;" direction="ltr" dominant-baseline="text-before-edge">Regel: Jeder x-Wert darf nur genau einen y-Wert haben.</text></g><g stroke-linecap="round"><g transform="translate(323 583) rotate(0 72.50099211753349 -0.13178522890422073)"><path d="M0.66 -0.19 C24.74 -0.36, 121.17 -0.36, 145.45 -0.31 M-0.45 -1.33 C23.33 -1.38, 119.85 0.59, 144.21 1.07" stroke="#1e1e1e" stroke-width="1" fill="none"></path></g></g><mask></mask><g stroke-linecap="round" transform="translate(48 542) rotate(0 295.5 31)"><path d="M15.5 0 M15.5 0 C190.82 0.82, 367.77 0.61, 575.5 0 M15.5 0 C140.01 -0.03, 265.43 0.1, 575.5 0 M575.5 0 C583.84 1.13, 592.57 5.16, 591 15.5 M575.5 0 C584.43 -0.68, 588.95 5.4, 591 15.5 M591 15.5 C589.28 24.69, 591.52 34.68, 591 46.5 M591 15.5 C590.97 22.74, 590.39 31.61, 591 46.5 M591 46.5 C591.81 55.05, 587.22 62.06, 575.5 62 M591 46.5 C592.7 56.44, 585.3 60.49, 575.5 62 M575.5 62 C451.9 60.95, 327.47 60.43, 15.5 62 M575.5 62 C392.47 62.01, 210.16 61.62, 15.5 62 M15.5 62 C6.63 62.26, 0.79 55.4, 0 46.5 M15.5 62 C6.38 60.32, 1.83 57.54, 0 46.5 M0 46.5 C1.85 35.21, 1.17 24.97, 0 15.5 M0 46.5 C0.44 36.9, -0.38 28.43, 0 15.5 M0 15.5 C-1.42 4.5, 4.83 1.75, 15.5 0 M0 15.5 C-1.93 4.88, 4.98 0.52, 15.5 0" stroke="#1e1e1e" stroke-width="1" fill="none"></path></g><g stroke-opacity="0.5" fill-opacity="0.5" transform="translate(790 399) rotate(0 0.00004999999998744897 0.00004999999998744897)" stroke="none"><path fill="#1e1e1e" d="M 1.57,-1.57 Q 1.57,-1.57 1.77,-1.27 1.98,-0.98 2.09,-0.64 2.20,-0.29 2.19,0.05 2.18,0.41 2.05,0.75 1.93,1.09 1.70,1.37 1.48,1.65 1.18,1.84 0.87,2.04 0.52,2.12 0.18,2.21 -0.17,2.18 -0.53,2.15 -0.86,2.01 -1.19,1.87 -1.46,1.63 -1.73,1.39 -1.90,1.07 -2.08,0.76 -2.15,0.41 -2.21,0.05 -2.17,-0.29 -2.12,-0.65 -1.96,-0.97 -1.80,-1.29 -1.54,-1.54 -1.29,-1.80 -0.97,-1.96 -0.65,-2.12 -0.29,-2.17 0.06,-2.21 0.41,-2.15 0.76,-2.08 1.07,-1.90 1.39,-1.73 1.63,-1.46 1.87,-1.19 2.01,-0.86 2.15,-0.53 2.18,-0.17 2.21,0.18 2.12,0.52 2.03,0.87 1.84,1.18 1.65,1.48 1.37,1.70 1.09,1.93 0.75,2.05 0.41,2.18 0.05,2.19 -0.30,2.20 -0.64,2.09 -0.98,1.98 -1.27,1.77 -1.57,1.56 -1.57,1.57 -1.57,1.57 -1.73,1.35 -1.90,1.14 -2.01,0.90 -2.12,0.66 -2.16,0.39 -2.21,0.13 -2.20,-0.13 -2.18,-0.40 -2.10,-0.65 -2.02,-0.91 -1.88,-1.14 -1.74,-1.36 -1.55,-1.55 -1.36,-1.74 -1.14,-1.88 -0.91,-2.02 -0.65,-2.10 -0.40,-2.18 -0.13,-2.20 0.13,-2.21 0.39,-2.16 0.66,-2.12 0.90,-2.01 1.14,-1.90 1.35,-1.73 1.57,-1.57 1.57,-1.57 L 1.57,-1.57 Z"></path></g><g stroke-linecap="round"><g transform="translate(681 213) rotate(0 -126 -1.5)"><path d="M0 0 C-42 -0.5, -210 -2.5, -252 -3 M0 0 C-42 -0.5, -210 -2.5, -252 -3" stroke="#1e1e1e" stroke-width="1" fill="none"></path></g><g transform="translate(681 213) rotate(0 -126 -1.5)"><path d="M-252 -3 L-238.33 -9.18 L-238.48 3.5 L-252 -3" stroke="none" stroke-width="0" fill="#1e1e1e" fill-rule="evenodd"></path><path d="M-252 -3 C-247.13 -5.2, -242.27 -7.4, -238.33 -9.18 M-252 -3 C-248.8 -4.45, -245.6 -5.89, -238.33 -9.18 M-238.33 -9.18 C-238.39 -4.56, -238.44 0.06, -238.48 3.5 M-238.33 -9.18 C-238.38 -4.82, -238.43 -0.47, -238.48 3.5 M-238.48 3.5 C-243.54 1.07, -248.6 -1.36, -252 -3 M-238.48 3.5 C-242.86 1.39, -247.25 -0.71, -252 -3 M-252 -3 C-252 -3, -252 -3, -252 -3 M-252 -3 C-252 -3, -252 -3, -252 -3" stroke="#1e1e1e" stroke-width="1" fill="none"></path></g></g><mask></mask></svg>